<svg width="17" height="15" viewBox="0 0 17 15" fill="none" xmlns="http://www.w3.org/2000/svg">
<path d="M16.3125 13.5007H15.1875V5.62573C15.1875 5.32736 15.069 5.04121 14.858 4.83024C14.647 4.61926 14.3609 4.50073 14.0625 4.50073H9.5625V1.12573C9.56263 0.92201 9.50744 0.722077 9.40283 0.54727C9.29821 0.372464 9.14809 0.229346 8.96848 0.133193C8.78888 0.0370397 8.58654 -0.0085402 8.38306 0.00131827C8.17958 0.0111767 7.98259 0.0761036 7.81313 0.189169L2.18812 3.93823C2.03382 4.04118 1.90736 4.18069 1.82002 4.34434C1.73267 4.50799 1.68715 4.6907 1.6875 4.8762V13.5007H0.5625C0.413316 13.5007 0.270242 13.56 0.164752 13.6655C0.0592632 13.771 0 13.914 0 14.0632C0 14.2124 0.0592632 14.3555 0.164752 14.461C0.270242 14.5665 0.413316 14.6257 0.5625 14.6257H16.3125C16.4617 14.6257 16.6048 14.5665 16.7102 14.461C16.8157 14.3555 16.875 14.2124 16.875 14.0632C16.875 13.914 16.8157 13.771 16.7102 13.6655C16.6048 13.56 16.4617 13.5007 16.3125 13.5007ZM14.0625 5.62573V13.5007H9.5625V5.62573H14.0625ZM2.8125 4.8762L8.4375 1.12573V13.5007H2.8125V4.8762ZM7.3125 6.75073V7.87573C7.3125 8.02492 7.25324 8.16799 7.14775 8.27348C7.04226 8.37897 6.89918 8.43823 6.75 8.43823C6.60082 8.43823 6.45774 8.37897 6.35225 8.27348C6.24676 8.16799 6.1875 8.02492 6.1875 7.87573V6.75073C6.1875 6.60155 6.24676 6.45847 6.35225 6.35298C6.45774 6.24749 6.60082 6.18823 6.75 6.18823C6.89918 6.18823 7.04226 6.24749 7.14775 6.35298C7.25324 6.45847 7.3125 6.60155 7.3125 6.75073ZM5.0625 6.75073V7.87573C5.0625 8.02492 5.00324 8.16799 4.89775 8.27348C4.79226 8.37897 4.64918 8.43823 4.5 8.43823C4.35082 8.43823 4.20774 8.37897 4.10225 8.27348C3.99676 8.16799 3.9375 8.02492 3.9375 7.87573V6.75073C3.9375 6.60155 3.99676 6.45847 4.10225 6.35298C4.20774 6.24749 4.35082 6.18823 4.5 6.18823C4.64918 6.18823 4.79226 6.24749 4.89775 6.35298C5.00324 6.45847 5.0625 6.60155 5.0625 6.75073ZM5.0625 10.6882V11.8132C5.0625 11.9624 5.00324 12.1055 4.89775 12.211C4.79226 12.3165 4.64918 12.3757 4.5 12.3757C4.35082 12.3757 4.20774 12.3165 4.10225 12.211C3.99676 12.1055 3.9375 11.9624 3.9375 11.8132V10.6882C3.9375 10.539 3.99676 10.396 4.10225 10.2905C4.20774 10.185 4.35082 10.1257 4.5 10.1257C4.64918 10.1257 4.79226 10.185 4.89775 10.2905C5.00324 10.396 5.0625 10.539 5.0625 10.6882ZM7.3125 10.6882V11.8132C7.3125 11.9624 7.25324 12.1055 7.14775 12.211C7.04226 12.3165 6.89918 12.3757 6.75 12.3757C6.60082 12.3757 6.45774 12.3165 6.35225 12.211C6.24676 12.1055 6.1875 11.9624 6.1875 11.8132V10.6882C6.1875 10.539 6.24676 10.396 6.35225 10.2905C6.45774 10.185 6.60082 10.1257 6.75 10.1257C6.89918 10.1257 7.04226 10.185 7.14775 10.2905C7.25324 10.396 7.3125 10.539 7.3125 10.6882Z" fill="#231F20"/>
</svg>
