<svg width="17" height="16" viewBox="0 0 17 16" fill="none" xmlns="http://www.w3.org/2000/svg">
<path d="M0.756 14H9.75C10.1635 14 10.5 13.6635 10.5 13.25V3.75C10.5 3.7385 10.495 3.7285 10.4935 3.7175C10.4922 3.70701 10.49 3.69665 10.487 3.6865C10.4769 3.64399 10.4559 3.60485 10.426 3.573L6.9265 0.0735C6.88699 0.0358273 6.83624 0.0121205 6.782 0.006C6.7715 0.005 6.7615 0 6.75 0H0.753C0.338 0 0 0.3365 0 0.75V13.25C0 13.6635 0.339 14 0.756 14ZM7 0.8535L9.6465 3.5H7.25C7.1837 3.5 7.12011 3.47366 7.07322 3.42678C7.02634 3.37989 7 3.3163 7 3.25V0.8535ZM0.5 0.75C0.5 0.612 0.6135 0.5 0.753 0.5H6.5V3.25C6.5 3.6635 6.8365 4 7.25 4H10V13.25C10 13.3163 9.97366 13.3799 9.92678 13.4268C9.87989 13.4737 9.8163 13.5 9.75 13.5H0.756C0.722775 13.5004 0.689797 13.4942 0.65895 13.4819C0.628103 13.4695 0.59999 13.4512 0.576218 13.428C0.552446 13.4048 0.533479 13.3771 0.520402 13.3466C0.507324 13.316 0.500392 13.2832 0.5 13.25V0.75Z" fill="#B88B15"/>
<path d="M2.25 6H8.25C8.3163 6 8.37989 5.97366 8.42678 5.92678C8.47366 5.87989 8.5 5.8163 8.5 5.75C8.5 5.6837 8.47366 5.62011 8.42678 5.57322C8.37989 5.52634 8.3163 5.5 8.25 5.5H2.25C2.1837 5.5 2.12011 5.52634 2.07322 5.57322C2.02634 5.62011 2 5.6837 2 5.75C2 5.8163 2.02634 5.87989 2.07322 5.92678C2.12011 5.97366 2.1837 6 2.25 6ZM2.25 8H8.25C8.3163 8 8.37989 7.97366 8.42678 7.92678C8.47366 7.87989 8.5 7.8163 8.5 7.75C8.5 7.6837 8.47366 7.62011 8.42678 7.57322C8.37989 7.52634 8.3163 7.5 8.25 7.5H2.25C2.1837 7.5 2.12011 7.52634 2.07322 7.57322C2.02634 7.62011 2 7.6837 2 7.75C2 7.8163 2.02634 7.87989 2.07322 7.92678C2.12011 7.97366 2.1837 8 2.25 8ZM2.25 4H4.75C4.8163 4 4.87989 3.97366 4.92678 3.92678C4.97366 3.87989 5 3.8163 5 3.75C5 3.6837 4.97366 3.62011 4.92678 3.57322C4.87989 3.52634 4.8163 3.5 4.75 3.5H2.25C2.1837 3.5 2.12011 3.52634 2.07322 3.57322C2.02634 3.62011 2 3.6837 2 3.75C2 3.8163 2.02634 3.87989 2.07322 3.92678C2.12011 3.97366 2.1837 4 2.25 4ZM2.25 10H8.25C8.3163 10 8.37989 9.97366 8.42678 9.92678C8.47366 9.87989 8.5 9.8163 8.5 9.75C8.5 9.6837 8.47366 9.62011 8.42678 9.57322C8.37989 9.52634 8.3163 9.5 8.25 9.5H2.25C2.1837 9.5 2.12011 9.52634 2.07322 9.57322C2.02634 9.62011 2 9.6837 2 9.75C2 9.8163 2.02634 9.87989 2.07322 9.92678C2.12011 9.97366 2.1837 10 2.25 10ZM2.25 12H8.25C8.3163 12 8.37989 11.9737 8.42678 11.9268C8.47366 11.8799 8.5 11.8163 8.5 11.75C8.5 11.6837 8.47366 11.6201 8.42678 11.5732C8.37989 11.5263 8.3163 11.5 8.25 11.5H2.25C2.1837 11.5 2.12011 11.5263 2.07322 11.5732C2.02634 11.6201 2 11.6837 2 11.75C2 11.8163 2.02634 11.8799 2.07322 11.9268C2.12011 11.9737 2.1837 12 2.25 12Z" fill="#B88B15"/>
<path d="M10.75 2.5H13V5.25C13 5.6635 13.3365 6 13.75 6H16.5V15.25C16.5 15.3163 16.4737 15.3799 16.4268 15.4268C16.3799 15.4737 16.3163 15.5 16.25 15.5H7.256C7.22277 15.5004 7.1898 15.4942 7.15895 15.4819C7.1281 15.4695 7.09999 15.4512 7.07622 15.428C7.05245 15.4048 7.03348 15.3771 7.0204 15.3466C7.00732 15.316 7.00039 15.2832 7 15.25V14.75C7 14.6837 6.97366 14.6201 6.92678 14.5732C6.87989 14.5263 6.8163 14.5 6.75 14.5C6.6837 14.5 6.62011 14.5263 6.57322 14.5732C6.52634 14.6201 6.5 14.6837 6.5 14.75V15.25C6.5 15.6635 6.839 16 7.256 16H16.25C16.6635 16 17 15.6635 17 15.25V5.75C17 5.7385 16.995 5.7285 16.9935 5.7175C16.9922 5.70701 16.99 5.69665 16.987 5.6865C16.9769 5.64399 16.9559 5.60485 16.926 5.573L13.4265 2.0735C13.3869 2.03601 13.3362 2.01248 13.282 2.0065C13.2715 2.005 13.2615 2 13.25 2H10.75C10.6837 2 10.6201 2.02634 10.5732 2.07322C10.5263 2.12011 10.5 2.1837 10.5 2.25C10.5 2.3163 10.5263 2.37989 10.5732 2.42678C10.6201 2.47366 10.6837 2.5 10.75 2.5ZM13.75 5.5C13.6837 5.5 13.6201 5.47366 13.5732 5.42678C13.5263 5.37989 13.5 5.3163 13.5 5.25V2.8535L16.1465 5.5H13.75Z" fill="#B88B15"/>
<path d="M11.75 8H14.75C14.8163 8 14.8799 7.97366 14.9268 7.92678C14.9737 7.87989 15 7.8163 15 7.75C15 7.6837 14.9737 7.62011 14.9268 7.57322C14.8799 7.52634 14.8163 7.5 14.75 7.5H11.75C11.6837 7.5 11.6201 7.52634 11.5732 7.57322C11.5263 7.62011 11.5 7.6837 11.5 7.75C11.5 7.8163 11.5263 7.87989 11.5732 7.92678C11.6201 7.97366 11.6837 8 11.75 8ZM11.75 10H14.75C14.8163 10 14.8799 9.97366 14.9268 9.92678C14.9737 9.87989 15 9.8163 15 9.75C15 9.6837 14.9737 9.62011 14.9268 9.57322C14.8799 9.52634 14.8163 9.5 14.75 9.5H11.75C11.6837 9.5 11.6201 9.52634 11.5732 9.57322C11.5263 9.62011 11.5 9.6837 11.5 9.75C11.5 9.8163 11.5263 9.87989 11.5732 9.92678C11.6201 9.97366 11.6837 10 11.75 10ZM11.75 12H14.75C14.8163 12 14.8799 11.9737 14.9268 11.9268C14.9737 11.8799 15 11.8163 15 11.75C15 11.6837 14.9737 11.6201 14.9268 11.5732C14.8799 11.5263 14.8163 11.5 14.75 11.5H11.75C11.6837 11.5 11.6201 11.5263 11.5732 11.5732C11.5263 11.6201 11.5 11.6837 11.5 11.75C11.5 11.8163 11.5263 11.8799 11.5732 11.9268C11.6201 11.9737 11.6837 12 11.75 12ZM11.75 14H14.75C14.8163 14 14.8799 13.9737 14.9268 13.9268C14.9737 13.8799 15 13.8163 15 13.75C15 13.6837 14.9737 13.6201 14.9268 13.5732C14.8799 13.5263 14.8163 13.5 14.75 13.5H11.75C11.6837 13.5 11.6201 13.5263 11.5732 13.5732C11.5263 13.6201 11.5 13.6837 11.5 13.75C11.5 13.8163 11.5263 13.8799 11.5732 13.9268C11.6201 13.9737 11.6837 14 11.75 14Z" fill="#B88B15"/>
</svg>
