<svg width="14" height="20" viewBox="0 0 14 20" fill="none" xmlns="http://www.w3.org/2000/svg">
<path d="M6.7677 19.0617H1.50221C1.30271 19.0617 1.11139 18.9652 0.970318 18.7935C0.829251 18.6218 0.75 18.3889 0.75 18.1461V1.66558C0.75 1.42276 0.829251 1.18987 0.970318 1.01817C1.11139 0.846463 1.30271 0.75 1.50221 0.75H12.0332C12.2327 0.75 12.424 0.846463 12.5651 1.01817C12.7061 1.18987 12.7854 1.42276 12.7854 1.66558V9.90584M11.0929 19.0617V13.1104" stroke="#F58220" stroke-width="1.5" stroke-linecap="round" stroke-linejoin="round"/>
<path d="M9.40039 14.7124L9.96455 14.0257L11.0929 12.6523L12.2212 14.0257L12.7853 14.7124" stroke="#F58220" stroke-width="1.5" stroke-linecap="round" stroke-linejoin="round"/>
<path d="M3.75879 6.24316H9.77649M3.75879 9.9055H6.76764" stroke="#F58220" stroke-width="1.5" stroke-linecap="round"/>
</svg>
