<svg width="16" height="15" viewBox="0 0 16 15" fill="none" xmlns="http://www.w3.org/2000/svg">
<path d="M15.7373 8.22656L14.8936 1.47656C14.8422 1.06867 14.6437 0.693561 14.3353 0.421684C14.0269 0.149806 13.6299 -0.000141018 13.2188 9.95152e-08H1.125C0.826631 9.95152e-08 0.540483 0.118526 0.329505 0.329505C0.118526 0.540483 0 0.826632 0 1.125V7.3125C0 7.61087 0.118526 7.89702 0.329505 8.108C0.540483 8.31897 0.826631 8.4375 1.125 8.4375H4.15266L6.80906 13.7517C6.85583 13.8452 6.9277 13.9238 7.01662 13.9786C7.10554 14.0335 7.208 14.0626 7.3125 14.0625C8.05842 14.0625 8.77379 13.7662 9.30124 13.2387C9.82868 12.7113 10.125 11.9959 10.125 11.25V10.125H14.0625C14.302 10.1251 14.5387 10.0742 14.757 9.97573C14.9753 9.87726 15.1701 9.73346 15.3285 9.55389C15.4869 9.37432 15.6053 9.16309 15.6758 8.93424C15.7463 8.70538 15.7673 8.46415 15.7373 8.22656ZM3.9375 7.3125H1.125V1.125H3.9375V7.3125ZM14.4844 8.80945C14.432 8.86975 14.3671 8.91801 14.2943 8.9509C14.2215 8.98379 14.1424 9.00054 14.0625 9H9.5625C9.41332 9 9.27024 9.05926 9.16475 9.16475C9.05926 9.27024 9 9.41332 9 9.5625V11.25C9.00011 11.6402 8.86503 12.0183 8.61774 12.3201C8.37045 12.6218 8.02624 12.8286 7.64367 12.9052L5.0625 7.74211V1.125H13.2188C13.3558 1.12495 13.4881 1.17494 13.5909 1.26556C13.6937 1.35619 13.7599 1.48122 13.777 1.61719L14.6208 8.36719C14.6313 8.44638 14.6246 8.52692 14.601 8.60327C14.5775 8.67961 14.5377 8.74995 14.4844 8.80945Z" fill="#231F20"/>
</svg>
