<svg width="26" height="26" viewBox="0 0 26 26" fill="none" xmlns="http://www.w3.org/2000/svg">
<g clip-path="url(#clip0_2961_8484)">
<path d="M0.554805 12.844C0.554195 15.0285 1.12945 17.1615 2.22327 19.0416L0.450195 25.4652L7.07532 23.7415C8.90775 24.7313 10.9608 25.25 13.0472 25.2501H13.0527C19.9401 25.2501 25.5467 19.6891 25.5496 12.8538C25.551 9.54159 24.2522 6.42703 21.8925 4.08381C19.5332 1.74079 16.3954 0.449754 13.0522 0.448242C6.1639 0.448242 0.55775 6.00902 0.554906 12.844" fill="url(#paint0_linear_2961_8484)"/>
<path d="M0.108672 12.8404C0.107961 15.1035 0.703828 17.3128 1.83666 19.2602L0 25.914L6.86268 24.1286C8.75357 25.1516 10.8825 25.6909 13.0489 25.6917H13.0544C20.189 25.6917 25.997 19.9306 26 12.8507C26.0012 9.41946 24.6557 6.19294 22.2117 3.76577C19.7674 1.3389 16.5174 0.00141085 13.0544 0C5.91866 0 0.111516 5.76031 0.108672 12.8404ZM4.19565 18.9248L3.93941 18.5212C2.86223 16.8217 2.29369 14.8578 2.2945 12.8412C2.29673 6.95641 7.12339 2.16868 13.0585 2.16868C15.9327 2.16989 18.6339 3.28164 20.6655 5.29876C22.6971 7.31608 23.815 9.99771 23.8143 12.8498C23.8116 18.7346 18.9849 23.5229 13.0544 23.5229H13.0502C11.1192 23.5219 9.22533 23.0074 7.57372 22.035L7.18067 21.8037L3.10822 22.8632L4.19565 18.9248Z" fill="url(#paint1_linear_2961_8484)"/>
<path d="M9.81898 7.47219C9.57666 6.93778 9.32163 6.927 9.09119 6.91762C8.90248 6.90956 8.68677 6.91017 8.47125 6.91017C8.25553 6.91017 7.90504 6.99069 7.60878 7.31166C7.31222 7.63293 6.47656 8.4093 6.47656 9.98835C6.47656 11.5674 7.6357 13.0935 7.79728 13.3079C7.95907 13.5218 10.035 16.866 13.3228 18.1524C16.0552 19.2216 16.6113 19.0089 17.2043 18.9553C17.7974 18.9019 19.1181 18.1792 19.3876 17.4297C19.6572 16.6803 19.6572 16.038 19.5764 15.9037C19.4956 15.77 19.2798 15.6897 18.9564 15.5293C18.6329 15.3688 17.0425 14.5923 16.7461 14.4851C16.4495 14.3781 16.2339 14.3247 16.0182 14.6461C15.8024 14.9669 15.183 15.6897 14.9942 15.9037C14.8056 16.1183 14.6168 16.145 14.2934 15.9845C13.9697 15.8234 12.928 15.4849 11.6921 14.3916C10.7305 13.5409 10.0813 12.4903 9.89262 12.1689C9.70391 11.8481 9.87241 11.6741 10.0346 11.5142C10.1799 11.3704 10.3582 11.1394 10.5201 10.9521C10.6814 10.7646 10.7352 10.6309 10.843 10.4168C10.951 10.2026 10.897 10.0152 10.8162 9.85462C10.7352 9.69408 10.1066 8.10677 9.81898 7.47219Z" fill="white"/>
</g>
<defs>
<linearGradient id="paint0_linear_2961_8484" x1="1255.42" y1="2502.14" x2="1255.42" y2="0.448242" gradientUnits="userSpaceOnUse">
<stop stop-color="#1FAF38"/>
<stop offset="1" stop-color="#60D669"/>
</linearGradient>
<linearGradient id="paint1_linear_2961_8484" x1="1300" y1="2591.4" x2="1300" y2="0" gradientUnits="userSpaceOnUse">
<stop stop-color="#F9F9F9"/>
<stop offset="1" stop-color="white"/>
</linearGradient>
<clipPath id="clip0_2961_8484">
<rect width="26" height="26" fill="white"/>
</clipPath>
</defs>
</svg>
